<svg viewBox="0 0 800 500" xmlns="http://www.w3.org/2000/svg">
  <!-- Title -->
  <text x="400" y="30" font-size="24" font-weight="bold" text-anchor="middle" fill="#333">Log Levels: From Most Detailed to Most Severe</text>
  
  <!-- Pyramid/Funnel shape -->
  <!-- DEBUG - Bottom (widest) -->
  <polygon points="100,420 700,420 650,360 150,360" fill="#e3f2fd" stroke="#1976d2" stroke-width="2"/>
  <text x="400" y="395" font-size="18" font-weight="bold" text-anchor="middle" fill="#1976d2">DEBUG</text>
  <text x="400" y="415" font-size="14" text-anchor="middle" fill="#555">Every tiny detail • Rarely used in production</text>
  
  <!-- INFO -->
  <polygon points="150,360 650,360 600,300 200,300" fill="#e8f5e9" stroke="#388e3c" stroke-width="2"/>
  <text x="400" y="335" font-size="18" font-weight="bold" text-anchor="middle" fill="#388e3c">INFO</text>
  <text x="400" y="355" font-size="14" text-anchor="middle" fill="#555">Normal operations • "User logged in"</text>
  
  <!-- WARNING -->
  <polygon points="200,300 600,300 550,240 250,240" fill="#fff3e0" stroke="#f57c00" stroke-width="2"/>
  <text x="400" y="275" font-size="18" font-weight="bold" text-anchor="middle" fill="#f57c00">WARNING</text>
  <text x="400" y="295" font-size="14" text-anchor="middle" fill="#555">Something's off • Still working</text>
  
  <!-- ERROR -->
  <polygon points="250,240 550,240 500,180 300,180" fill="#ffebee" stroke="#d32f2f" stroke-width="2"/>
  <text x="400" y="215" font-size="18" font-weight="bold" text-anchor="middle" fill="#d32f2f">ERROR</text>
  <text x="400" y="235" font-size="14" text-anchor="middle" fill="#555">Something failed</text>
  
  <!-- CRITICAL - Top (narrowest) -->
  <polygon points="300,180 500,180 450,120 350,120" fill="#f3e5f5" stroke="#7b1fa2" stroke-width="2"/>
  <text x="400" y="155" font-size="18" font-weight="bold" text-anchor="middle" fill="#7b1fa2">CRITICAL</text>
  <text x="400" y="175" font-size="14" text-anchor="middle" fill="#555">System failure</text>
  
  <!-- Arrow and labels on the sides -->
  <!-- Left side - Verbosity -->
  <line x1="50" y1="420" x2="50" y2="120" stroke="#666" stroke-width="2" marker-end="url(#arrowhead)"/>
  <text x="30" y="270" font-size="16" font-weight="bold" fill="#666" transform="rotate(-90 30 270)">More Verbose</text>
  
  <!-- Right side - Severity -->
  <line x1="750" y1="420" x2="750" y2="120" stroke="#666" stroke-width="2" marker-end="url(#arrowhead)"/>
  <text x="770" y="270" font-size="16" font-weight="bold" fill="#666" transform="rotate(90 770 270)">More Severe</text>
  
  <!-- Arrow marker definition -->
  <defs>
    <marker id="arrowhead" markerWidth="10" markerHeight="10" refX="5" refY="5" orient="auto">
      <polygon points="0 0, 10 5, 0 10" fill="#666"/>
    </marker>
  </defs>
  
  <!-- Bottom note -->
  <text x="400" y="465" font-size="14" text-anchor="middle" fill="#666" font-style="italic">
    Setting log level to WARNING captures: WARNING + ERROR + CRITICAL
  </text>
</svg>